<svg xmlns="http://www.w3.org/2000/svg" viewBox="0 0 280 50" fill="none">
  <!-- Two overlapping hearts icon -->
  <g transform="translate(0, 5)">
    <path d="M14 28C14 28 4 20 4 13C4 9 7 6 11 6C13.5 6 15 7.5 16 9C17 7.5 18.5 6 21 6C25 6 28 9 28 13C28 20 18 28 18 28" fill="#52B788" opacity="0.7"/>
    <path d="M20 32C20 32 10 24 10 17C10 13 13 10 17 10C19.5 10 21 11.5 22 13C23 11.5 24.5 10 27 10C31 10 34 13 34 17C34 24 24 32 24 32" fill="#2D6A4F"/>
  </g>
  <!-- Text -->
  <text x="44" y="24" font-family="Playfair Display, Georgia, serif" font-size="22" font-weight="700" fill="#2D6A4F">Parent</text>
  <text x="138" y="24" font-family="Playfair Display, Georgia, serif" font-size="22" font-weight="700" fill="#F4A261">2</text>
  <text x="152" y="24" font-family="Playfair Display, Georgia, serif" font-size="22" font-weight="700" fill="#2D6A4F">Parent</text>
  <text x="44" y="42" font-family="DM Sans, sans-serif" font-size="10" font-weight="400" letter-spacing="2" fill="#6B7280">PREVIOUSLY LOVED. READY FOR MORE.</text>
</svg>
